HIERARCHY
ROOT Hips
{
	OFFSET 0.000000 83.214638 0.000000
	CHANNELS 6 Xposition Yposition Zposition Xrotation Yrotation Zrotation
	JOINT Pelvis
	{
		OFFSET 0.000000 0.000000 0.000000
		CHANNELS 3 Xrotation Yrotation Zrotation
		JOINT LeftUpLeg
		{
			OFFSET 8.479700 -4.795502 -0.379100
			CHANNELS 3 Xrotation Yrotation Zrotation
			JOINT LeftLeg
			{
				OFFSET 0.024144 -32.555107 0.112900
				CHANNELS 3 Xrotation Yrotation Zrotation
				JOINT LeftFoot
				{
					OFFSET -0.024144 -32.638630 -3.012600
					CHANNELS 3 Xrotation Yrotation Zrotation
					JOINT LeftToeBase
					{
						OFFSET 0.970200 -13.225400 11.864200
						CHANNELS 3 Xrotation Yrotation Zrotation
						End Site
						{
							OFFSET 0.000000 12.319262 0.000000
						}
					}
					JOINT LFootTongue
					{
						OFFSET 1.142400 -1.059800 6.665200
						CHANNELS 3 Xrotation Yrotation Zrotation
						End Site
						{
							OFFSET 0.000000 12.319262 0.000000
						}
					}
				}
				JOINT LeftPantLeg
				{
					OFFSET 0.918482 -16.533964 -2.284700
					CHANNELS 3 Xrotation Yrotation Zrotation
					End Site
					{
						OFFSET 0.350399 24.744368 0.000000
					}
				}
			}
		}
		JOINT RightUpLeg
		{
			OFFSET -8.479700 -4.795502 -0.379100
			CHANNELS 3 Xrotation Yrotation Zrotation
			JOINT RightLeg
			{
				OFFSET -0.023144 -32.555092 0.112900
				CHANNELS 3 Xrotation Yrotation Zrotation
				JOINT RightFoot
				{
					OFFSET 0.023144 -32.638641 -3.012700
					CHANNELS 3 Xrotation Yrotation Zrotation
					JOINT RightToeBase
					{
						OFFSET -0.970200 -13.225400 11.864200
						CHANNELS 3 Xrotation Yrotation Zrotation
						End Site
						{
							OFFSET 0.000000 12.319244 0.000000
						}
					}
					JOINT RFootTongue
					{
						OFFSET -1.142200 -1.059800 6.665200
						CHANNELS 3 Xrotation Yrotation Zrotation
						End Site
						{
							OFFSET 0.000000 12.319243 0.000000
						}
					}
				}
				JOINT RightPantLeg
				{
					OFFSET -0.919482 -16.533978 -2.284800
					CHANNELS 3 Xrotation Yrotation Zrotation
					End Site
					{
						OFFSET -0.350400 24.744419 0.000000
					}
				}
			}
		}
	}
	JOINT Spine
	{
		OFFSET 0.000000 7.722000 1.166200
		CHANNELS 3 Xrotation Yrotation Zrotation
		JOINT Spine1
		{
			OFFSET 0.000000 12.024101 0.248800
			CHANNELS 3 Xrotation Yrotation Zrotation
			JOINT Spine2
			{
				OFFSET 0.000000 11.502998 -0.491200
				CHANNELS 3 Xrotation Yrotation Zrotation
				JOINT Neck
				{
					OFFSET 0.000000 18.430702 -3.123100
					CHANNELS 3 Xrotation Yrotation Zrotation
					JOINT Head
					{
						OFFSET 0.000000 9.051102 1.034000
						CHANNELS 3 Xrotation Yrotation Zrotation
						JOINT HairB
						{
							OFFSET 0.208400 24.786102 24.822300
							CHANNELS 3 Xrotation Yrotation Zrotation
							End Site
							{
								OFFSET 0.000000 32.263779 0.000000
							}
						}
						JOINT HairA
						{
							OFFSET -7.081100 24.428299 23.196600
							CHANNELS 3 Xrotation Yrotation Zrotation
							End Site
							{
								OFFSET 0.000000 32.263779 0.000000
							}
						}
						JOINT Hat
						{
							OFFSET 16.728800 15.048294 -15.439601
							CHANNELS 3 Xrotation Yrotation Zrotation
							End Site
							{
								OFFSET 0.000000 32.263779 0.000000
							}
						}
					}
				}
				JOINT LeftShoulder
				{
					OFFSET 6.197800 13.665199 -4.064700
					CHANNELS 3 Xrotation Yrotation Zrotation
					JOINT LeftArm
					{
						OFFSET 7.778100 -0.187103 -1.709300
						CHANNELS 3 Xrotation Yrotation Zrotation
						JOINT LeftForeArm
						{
							OFFSET 22.049376 0.000000 0.000000
							CHANNELS 3 Xrotation Yrotation Zrotation
							JOINT LeftHand
							{
								OFFSET 23.009392 0.000000 0.000000
								CHANNELS 3 Xrotation Yrotation Zrotation
								JOINT LeftHandThumb1
								{
									OFFSET 3.507191 -2.063065 3.133727
									CHANNELS 3 Xrotation Yrotation Zrotation
									JOINT LeftHandThumb2
									{
										OFFSET 3.101337 -1.790558 1.790558
										CHANNELS 3 Xrotation Yrotation Zrotation
										JOINT LeftHandThumb3
										{
											OFFSET 3.058640 -1.765907 1.765906
											CHANNELS 3 Xrotation Yrotation Zrotation
											End Site
											{
												OFFSET -0.415260 3.926476 -0.049563
											}
										}
									}
								}
								JOINT LeftHandIndex1
								{
									OFFSET 11.334419 -0.901459 3.706815
									CHANNELS 3 Xrotation Yrotation Zrotation
									JOINT LeftHandIndex2
									{
										OFFSET 3.283112 0.000000 0.000000
										CHANNELS 3 Xrotation Yrotation Zrotation
										JOINT LeftHandIndex3
										{
											OFFSET 3.323853 0.000000 0.000000
											CHANNELS 3 Xrotation Yrotation Zrotation
											End Site
											{
												OFFSET -1.135597 3.097809 0.402452
											}
										}
									}
								}
								JOINT LeftHandMiddle1
								{
									OFFSET 11.335861 0.000000 0.000000
									CHANNELS 3 Xrotation Yrotation Zrotation
									JOINT LeftHandMiddle2
									{
										OFFSET 3.410492 0.000000 0.000000
										CHANNELS 3 Xrotation Yrotation Zrotation
										JOINT LeftHandMiddle3
										{
											OFFSET 3.312172 0.000000 0.000000
											CHANNELS 3 Xrotation Yrotation Zrotation
											End Site
											{
												OFFSET -1.150200 3.080154 0.400270
											}
										}
									}
								}
								JOINT LeftHandRing1
								{
									OFFSET 11.514786 -0.013176 -3.003090
									CHANNELS 3 Xrotation Yrotation Zrotation
									JOINT LeftHandRing2
									{
										OFFSET 3.053307 0.000000 0.000000
										CHANNELS 3 Xrotation Yrotation Zrotation
										JOINT LeftHandRing3
										{
											OFFSET 3.295807 0.000000 0.000000
											CHANNELS 3 Xrotation Yrotation Zrotation
											End Site
											{
												OFFSET -1.281006 3.013344 0.375733
											}
										}
									}
								}
								JOINT LeftHandPinky1
								{
									OFFSET 10.518692 -0.960396 -5.730441
									CHANNELS 3 Xrotation Yrotation Zrotation
									JOINT LeftHandPinky2
									{
										OFFSET 2.861649 0.000000 0.000000
										CHANNELS 3 Xrotation Yrotation Zrotation
										JOINT LeftHandPinky3
										{
											OFFSET 2.863380 0.000000 0.000000
											CHANNELS 3 Xrotation Yrotation Zrotation
											End Site
											{
												OFFSET -0.843597 2.711159 0.369971
											}
										}
									}
								}
							}
							JOINT LSleeve
							{
								OFFSET 6.676277 -0.344902 -1.011730
								CHANNELS 3 Xrotation Yrotation Zrotation
								End Site
								{
									OFFSET 0.000000 14.885353 0.000000
								}
							}
						}
					}
				}
				JOINT RightShoulder
				{
					OFFSET -6.197800 13.665199 -4.064700
					CHANNELS 3 Xrotation Yrotation Zrotation
					JOINT RightArm
					{
						OFFSET -7.778100 -0.187103 -1.709300
						CHANNELS 3 Xrotation Yrotation Zrotation
						JOINT RightForeArm
						{
							OFFSET -22.049376 0.000000 0.000000
							CHANNELS 3 Xrotation Yrotation Zrotation
							JOINT RightHand
							{
								OFFSET -23.009392 0.000000 0.000000
								CHANNELS 3 Xrotation Yrotation Zrotation
								JOINT RightHandThumb1
								{
									OFFSET -3.507191 -2.063065 3.133727
									CHANNELS 3 Xrotation Yrotation Zrotation
									JOINT RightHandThumb2
									{
										OFFSET -3.101337 -1.790558 1.790558
										CHANNELS 3 Xrotation Yrotation Zrotation
										JOINT RightHandThumb3
										{
											OFFSET -3.058640 -1.765907 1.765906
											CHANNELS 3 Xrotation Yrotation Zrotation
											End Site
											{
												OFFSET 0.415260 3.926476 -0.049563
											}
										}
									}
								}
								JOINT RightHandIndex1
								{
									OFFSET -11.334419 -0.901459 3.706815
									CHANNELS 3 Xrotation Yrotation Zrotation
									JOINT RightHandIndex2
									{
										OFFSET -3.283112 0.000000 0.000000
										CHANNELS 3 Xrotation Yrotation Zrotation
										JOINT RightHandIndex3
										{
											OFFSET -3.323853 0.000000 0.000000
											CHANNELS 3 Xrotation Yrotation Zrotation
											End Site
											{
												OFFSET 1.135597 3.097809 0.402452
											}
										}
									}
								}
								JOINT RightHandMiddle1
								{
									OFFSET -11.335861 0.000000 0.000000
									CHANNELS 3 Xrotation Yrotation Zrotation
									JOINT RightHandMiddle2
									{
										OFFSET -3.410492 0.000000 0.000000
										CHANNELS 3 Xrotation Yrotation Zrotation
										JOINT RightHandMiddle3
										{
											OFFSET -3.312172 0.000000 0.000000
											CHANNELS 3 Xrotation Yrotation Zrotation
											End Site
											{
												OFFSET 1.150200 3.080154 0.400270
											}
										}
									}
								}
								JOINT RightHandRing1
								{
									OFFSET -11.514786 -0.013176 -3.003090
									CHANNELS 3 Xrotation Yrotation Zrotation
									JOINT RightHandRing2
									{
										OFFSET -3.053307 0.000000 0.000000
										CHANNELS 3 Xrotation Yrotation Zrotation
										JOINT RightHandRing3
										{
											OFFSET -3.295807 0.000000 0.000000
											CHANNELS 3 Xrotation Yrotation Zrotation
											End Site
											{
												OFFSET 1.281006 3.013344 0.375733
											}
										}
									}
								}
								JOINT RightHandPinky1
								{
									OFFSET -10.518692 -0.960396 -5.730441
									CHANNELS 3 Xrotation Yrotation Zrotation
									JOINT RightHandPinky2
									{
										OFFSET -2.861649 0.000000 0.000000
										CHANNELS 3 Xrotation Yrotation Zrotation
										JOINT RightHandPinky3
										{
											OFFSET -2.863380 0.000000 0.000000
											CHANNELS 3 Xrotation Yrotation Zrotation
											End Site
											{
												OFFSET 0.843597 2.711159 0.369971
											}
										}
									}
								}
							}
							JOINT RSleeve
							{
								OFFSET -6.676277 -0.344902 -1.011730
								CHANNELS 3 Xrotation Yrotation Zrotation
								End Site
								{
									OFFSET 0.000000 14.885353 0.000000
								}
							}
						}
					}
				}
				JOINT Backpack
				{
					OFFSET 0.000000 -2.471497 36.677502
					CHANNELS 3 Xrotation Yrotation Zrotation
					End Site
					{
						OFFSET 0.000000 20.427315 0.000000
					}
				}
				JOINT Hood
				{
					OFFSET 0.000000 18.754097 -10.431000
					CHANNELS 3 Xrotation Yrotation Zrotation
					JOINT Hood1
					{
						OFFSET 0.000000 -5.011002 -7.685901
						CHANNELS 3 Xrotation Yrotation Zrotation
						End Site
						{
							OFFSET 0.000000 9.175140 0.000000
						}
					}
				}
				JOINT LHoodieString
				{
					OFFSET 5.250500 16.397697 3.089900
					CHANNELS 3 Xrotation Yrotation Zrotation
					JOINT LHoodieString1
					{
						OFFSET 0.257700 -6.364304 3.694600
						CHANNELS 3 Xrotation Yrotation Zrotation
						JOINT LHoodieString2
						{
							OFFSET 0.000000 -9.643799 2.679100
							CHANNELS 3 Xrotation Yrotation Zrotation
							End Site
							{
								OFFSET 0.000000 10.009018 0.000000
							}
						}
					}
				}
				JOINT RHoodieString
				{
					OFFSET -5.250500 16.397697 3.089900
					CHANNELS 3 Xrotation Yrotation Zrotation
					JOINT RHoodieString1
					{
						OFFSET -0.257700 -6.364304 3.694600
						CHANNELS 3 Xrotation Yrotation Zrotation
						JOINT RHoodieString2
						{
							OFFSET 0.000000 -9.643799 2.679100
							CHANNELS 3 Xrotation Yrotation Zrotation
							End Site
							{
								OFFSET 0.000000 10.009018 0.000000
							}
						}
					}
				}
			}
			JOINT LBackpack_Strap
			{
				OFFSET 15.223200 -7.719803 -6.610900
				CHANNELS 3 Xrotation Yrotation Zrotation
				End Site
				{
					OFFSET 0.000000 16.040596 0.000000
				}
			}
			JOINT RBackpack_Strap
			{
				OFFSET -15.223000 -7.719803 -6.610900
				CHANNELS 3 Xrotation Yrotation Zrotation
				End Site
				{
					OFFSET 0.000000 16.040596 0.000000
				}
			}
		}
	}
	JOINT BoyFacialAnim_Joint
	{
		OFFSET 1.000000 -82.208099 -1.550900
		CHANNELS 3 Xrotation Yrotation Zrotation
		End Site
		{
			OFFSET 0.000000 30.012791 0.000000
		}
	}
}
MOTION
Frames: 4
Frame Time: 0.033333
0.102024 76.415321 820.640076 90.704256 -1.277757 0.490510 0.000000 -0.000000 0.000000 -6.540851 10.043673 13.148001 21.117912 8.934535 0.620388 18.875288 -2.439335 -15.083283 -0.000000 0.000001 -0.000000 -0.000000 0.000001 0.000000 -0.000002 0.000002 0.000000 -8.245376 -28.747648 -25.469767 10.631619 -9.502717 -1.653031 37.571925 3.302518 2.665224 0.000001 0.000002 -0.000001 0.000001 0.000002 -0.000001 -0.000001 -0.000000 0.000000 -9.868747 1.520949 0.986685 -1.988589 0.363087 0.134956 -1.988092 0.372418 0.135982 -13.422653 1.640856 -7.851267 -16.993608 -6.298327 10.245612 0.000001 -0.000000 -0.000000 0.000001 -0.000000 -0.000000 0.000001 -0.000000 -0.000000 2.619984 -7.165392 -6.972938 6.153298 -1.171726 -67.350781 -0.000006 -8.115165 0.000002 3.701795 -0.068258 -5.012996 4.891681 7.994793 1.883989 10.475100 36.544343 -16.206437 -0.000000 -0.000002 -0.000001 7.775684 6.956330 -86.152721 10.250138 6.003587 -119.372077 0.000003 -0.000000 -0.000002 6.554746 6.873511 -87.274306 9.404177 6.404057 -111.556039 -0.000000 -0.000000 -0.000003 3.127863 6.869491 -89.819672 9.007612 6.545928 -108.040718 0.000001 0.000001 -0.000002 1.160389 7.315420 -94.148420 8.017719 2.700487 -99.510706 0.000002 0.000000 0.000002 -0.000001 -0.000002 0.000000 -0.675812 -20.059448 -0.492003 -16.804763 -14.042187 60.393796 -0.000004 0.000017 -0.000005 19.523583 3.499464 15.826269 2.101958 -10.083008 3.633743 25.660783 -30.716693 6.844851 -0.000000 0.000000 -0.000001 9.556187 -7.137746 86.157912 10.350246 -6.061996 119.375533 0.000000 -0.000003 0.000001 6.610157 -6.940080 87.289428 9.494174 -6.467138 111.542651 0.000000 0.000000 -0.000000 1.946417 -7.142809 92.181114 8.379101 -6.800027 101.912337 0.000001 0.000001 0.000000 -2.850698 -7.674976 94.127465 8.100961 -6.852437 99.572677 -0.000000 0.000000 -0.000001 -0.000000 -0.000001 0.000001 -0.000000 -0.000000 -0.000000 -0.000000 -0.000000 -0.000000 -0.000000 -0.000000 -0.000000 -0.000000 -0.000000 -0.000000 -0.000000 -0.000000 -0.000000 -0.000000 -0.000000 -0.000000 -0.000000 -0.000000 -0.000000 -0.000000 -0.000000 -0.000000 -0.000000 -0.000000 -0.000000 -0.000000 0.000000 -0.000000 -0.000000 0.000000 -0.000000 0.000000 -0.000000 0.000000 
0.203137 76.391342 841.137573 90.656725 -1.193649 0.489880 -0.000000 0.000000 -0.000000 -6.792513 9.960183 13.165487 21.238267 8.929742 0.647828 18.591787 -2.445681 -15.273280 -0.000000 0.000001 -0.000001 -0.000000 0.000001 -0.000001 -0.000002 -0.000004 0.000000 -8.251850 -28.730996 -25.462882 10.627055 -9.544474 -1.662725 37.578256 3.240115 2.596106 -0.000003 0.000002 -0.000002 -0.000003 0.000002 -0.000002 0.000001 -0.000004 0.000003 -9.877457 1.520081 0.838179 -1.991273 0.360100 0.106504 -1.990774 0.369409 0.107515 -13.447203 1.585918 -7.631199 -17.075379 -6.179365 10.244555 0.000002 0.000000 -0.000000 0.000002 0.000000 -0.000000 0.000002 0.000000 -0.000000 2.577575 -7.068959 -6.920144 6.168339 -1.207161 -67.005932 -0.000010 -8.029903 0.000008 4.117634 -0.107117 -4.941978 4.891682 7.994793 1.883986 10.475102 36.544336 -16.206437 0.000001 -0.000002 -0.000000 7.775685 6.956330 -86.152728 10.250137 6.003588 -119.372077 -0.000001 0.000000 -0.000002 6.554750 6.873510 -87.274306 9.404176 6.404059 -111.556052 0.000001 0.000000 -0.000001 3.127864 6.869491 -89.819679 9.007612 6.545928 -108.040718 0.000000 -0.000001 -0.000000 1.160393 7.315423 -94.148420 8.017717 2.700485 -99.510706 -0.000000 0.000000 -0.000002 -0.000000 0.000001 0.000001 -0.536357 -19.883482 -0.050991 -16.743089 -14.057051 60.326888 -0.000002 0.000005 0.000003 19.794990 3.480935 15.976345 2.101957 -10.083005 3.633742 25.660785 -30.716696 6.844850 -0.000000 0.000002 0.000000 9.556184 -7.137741 86.157905 10.350242 -6.061996 119.375533 -0.000001 0.000000 0.000002 6.610158 -6.940077 87.289428 9.494175 -6.467137 111.542645 0.000000 0.000002 0.000000 1.946416 -7.142807 92.181114 8.379100 -6.800028 101.912331 0.000000 -0.000000 -0.000003 -2.850698 -7.674970 94.127465 8.100962 -6.852439 99.572683 0.000001 0.000004 -0.000001 0.000001 -0.000001 -0.000001 0.000001 -0.000000 -0.000000 0.000001 -0.000000 -0.000000 0.000001 -0.000000 -0.000000 0.000001 -0.000000 -0.000000 0.000001 -0.000000 -0.000000 0.000001 -0.000000 0.000000 0.000001 -0.000000 -0.000000 0.000001 -0.000000 -0.000000 0.000001 -0.000000 0.000000 0.000000 0.000000 -0.000000 0.000000 0.000000 -0.000000 -0.000000 0.000000 -0.000000 
0.300503 76.372116 861.627991 90.606974 -1.105659 0.489859 0.000000 0.000000 -0.000000 -7.003694 9.892754 13.223311 21.288731 8.936673 0.701715 18.305071 -2.423597 -15.529880 -0.000000 -0.000002 0.000000 -0.000000 -0.000002 0.000001 -0.000001 0.000000 -0.000001 -8.239668 -28.703894 -25.421542 10.594576 -9.614357 -1.691422 37.587456 3.202407 2.463802 -0.000000 0.000003 -0.000002 -0.000000 0.000003 -0.000002 0.000002 -0.000003 -0.000000 -9.865943 1.541160 0.698665 -1.988853 0.361537 0.079181 -1.988356 0.370771 0.080197 -13.474917 1.527858 -7.402634 -17.188120 -6.056602 10.208686 -0.000001 0.000000 0.000000 -0.000001 0.000000 0.000000 -0.000001 0.000000 0.000000 2.543936 -6.993636 -6.893544 6.169081 -1.228864 -66.709406 0.000004 -7.993880 -0.000002 4.252314 -0.080571 -4.876898 4.891681 7.994794 1.883989 10.475098 36.544340 -16.206439 -0.000001 -0.000000 -0.000000 7.775684 6.956331 -86.152721 10.250138 6.003586 -119.372077 0.000001 -0.000000 -0.000002 6.554747 6.873510 -87.274306 9.404177 6.404057 -111.556045 0.000001 -0.000001 -0.000002 3.127861 6.869492 -89.819672 9.007610 6.545928 -108.040711 0.000001 -0.000000 -0.000002 1.160390 7.315425 -94.148420 8.017720 2.700486 -99.510706 -0.000000 0.000001 -0.000000 -0.000001 0.000001 -0.000001 -0.382275 -19.679445 0.405359 -16.719716 -13.901399 60.410189 -0.000001 0.000020 0.000003 20.312021 3.511393 15.976810 2.101960 -10.083007 3.633745 25.660785 -30.716696 6.844850 0.000001 -0.000002 -0.000000 9.556186 -7.137743 86.157905 10.350243 -6.061995 119.375519 0.000001 0.000000 0.000002 6.610158 -6.940077 87.289428 9.494171 -6.467138 111.542645 -0.000000 -0.000000 0.000001 1.946416 -7.142807 92.181114 8.379101 -6.800030 101.912324 0.000002 0.000001 -0.000001 -2.850698 -7.674973 94.127458 8.100962 -6.852439 99.572683 -0.000001 0.000003 0.000001 0.000000 0.000001 -0.000001 -0.000001 -0.000000 -0.000000 -0.000001 -0.000000 -0.000000 -0.000001 -0.000000 -0.000000 -0.000001 -0.000000 -0.000000 -0.000001 -0.000000 -0.000000 -0.000001 -0.000000 0.000000 -0.000001 -0.000000 -0.000000 -0.000001 -0.000000 -0.000000 -0.000001 -0.000000 0.000000 -0.000000 -0.000000 -0.000000 -0.000000 -0.000000 -0.000000 0.000000 0.000000 -0.000000 
0.396115 76.355553 882.113831 90.556356 -1.016821 0.494105 -0.000000 -0.000000 0.000000 -7.218741 9.842648 13.316060 21.341146 8.958083 0.761167 18.049063 -2.323952 -15.674772 -0.000002 0.000000 -0.000000 -0.000002 0.000000 0.000000 0.000001 0.000002 -0.000001 -8.234182 -28.619845 -25.379106 10.578760 -9.643078 -1.726663 37.562079 3.214984 2.389183 0.000001 0.000002 -0.000001 0.000001 0.000002 -0.000001 0.000001 -0.000001 -0.000001 -9.838888 1.583672 0.568936 -1.982507 0.367252 0.053509 -1.981964 0.376404 0.054552 -13.474323 1.475007 -7.186699 -17.304737 -5.931625 10.222142 -0.000000 0.000000 0.000000 -0.000000 0.000000 0.000000 -0.000000 0.000000 0.000000 2.524503 -6.950508 -6.892533 6.175525 -1.184857 -66.448643 0.000012 -7.976385 -0.000016 4.355685 -0.036474 -4.902101 4.891679 7.994794 1.883985 10.475099 36.544340 -16.206442 -0.000001 -0.000001 0.000001 7.775684 6.956331 -86.152728 10.250137 6.003589 -119.372077 0.000002 0.000001 -0.000003 6.554745 6.873510 -87.274299 9.404178 6.404060 -111.556045 -0.000001 -0.000000 -0.000003 3.127860 6.869491 -89.819672 9.007611 6.545925 -108.040718 0.000001 -0.000001 -0.000000 1.160387 7.315422 -94.148414 8.017719 2.700485 -99.510706 -0.000001 -0.000001 -0.000000 0.000002 -0.000000 0.000000 -0.226594 -19.470407 0.883926 -16.723836 -13.595476 60.634799 -0.000008 0.000049 -0.000004 21.015867 3.570394 15.851455 2.101956 -10.083007 3.633745 25.660783 -30.716689 6.844850 0.000000 -0.000001 0.000000 9.556186 -7.137745 86.157905 10.350244 -6.061996 119.375533 -0.000000 0.000001 0.000000 6.610155 -6.940077 87.289428 9.494175 -6.467138 111.542645 0.000000 0.000000 -0.000000 1.946413 -7.142807 92.181114 8.379098 -6.800028 101.912331 0.000001 0.000003 0.000001 -2.850698 -7.674973 94.127458 8.100961 -6.852439 99.572677 -0.000000 -0.000001 -0.000003 0.000000 0.000001 -0.000002 -0.000001 -0.000000 0.000000 -0.000001 -0.000000 0.000000 -0.000001 -0.000000 0.000000 -0.000001 -0.000000 0.000000 -0.000001 -0.000000 0.000000 -0.000001 0.000000 0.000000 -0.000001 -0.000000 0.000000 -0.000001 -0.000000 0.000000 -0.000001 0.000000 0.000000 0.000000 0.000000 -0.000000 0.000000 0.000000 -0.000000 -0.000000 -0.000000 0.000000 
